<svg xmlns="http://www.w3.org/2000/svg" version="1.1" xmlns:xlink="http://www.w3.org/1999/xlink" width="200" height="200"><svg xmlns="http://www.w3.org/2000/svg" version="1.1" xmlns:xlink="http://www.w3.org/1999/xlink" width="200" height="200"><svg xmlns="http://www.w3.org/2000/svg" version="1.1" xmlns:xlink="http://www.w3.org/1999/xlink" viewBox="0 0 200 200"><rect width="200" height="200" fill="url('#gradient')"></rect><defs><linearGradient id="gradient" gradientTransform="rotate(124 0.5 0.5)"><stop offset="0%" stop-color="#e2e1ba"></stop><stop offset="100%" stop-color="#fff8ea"></stop></linearGradient></defs><g><g fill="#acc6ca" transform="matrix(1.346959425275726,0,0,1.346959425275726,33.55343742780957,107.22764784380527)" stroke="#5aa3a6" stroke-width="0"><path d="M1.07-14.22L5.58-14.22L8.75-4.33L11.91-14.22L16.43-14.22L16.43 0L12.99 0L12.99-3.32L13.32-10.12L9.88 0L7.62 0L4.17-10.13L4.50-3.32L4.50 0L1.07 0L1.07-14.22ZM21.01-10.57L22.68-4.61L24.43-10.57L27.96-10.57L23.65 1.77L23.47 2.22Q22.55 4.27 20.22 4.27L20.22 4.27Q19.58 4.27 18.87 4.07L18.87 4.07L18.87 1.72L19.30 1.72Q19.99 1.72 20.36 1.52Q20.72 1.32 20.90 0.80L20.90 0.80L21.16 0.10L17.49-10.57L21.01-10.57ZM42.85 0L42.02-2.66L37.32-2.66L36.50 0L32.84 0L38.06-14.22L41.28-14.22L46.53 0L42.85 0ZM39.67-10.23L38.14-5.30L41.20-5.30L39.67-10.23ZM46.88-10.57L49.97-10.57L50.08-9.33Q51.17-10.76 53.10-10.76L53.10-10.76Q54.75-10.76 55.56-9.78Q56.38-8.79 56.41-6.81L56.41-6.81L56.41 0L53.11 0L53.11-6.67Q53.11-7.47 52.78-7.85Q52.46-8.22 51.61-8.22L51.61-8.22Q50.64-8.22 50.18-7.46L50.18-7.46L50.18 0L46.88 0L46.88-10.57ZM62.70-2.34L62.70-2.34Q63.39-2.34 63.77-2.72Q64.15-3.10 64.14-3.77L64.14-3.77L67.23-3.77Q67.23-2.03 65.98-0.92Q64.74 0.20 62.77 0.20L62.77 0.20Q60.47 0.20 59.14-1.25Q57.81-2.70 57.81-5.25L57.81-5.25L57.81-5.39Q57.81-6.99 58.40-8.22Q58.99-9.44 60.11-10.10Q61.22-10.76 62.74-10.76L62.74-10.76Q64.80-10.76 66.02-9.62Q67.23-8.48 67.23-6.52L67.23-6.52L64.14-6.52Q64.14-7.34 63.74-7.78Q63.34-8.22 62.67-8.22L62.67-8.22Q61.39-8.22 61.17-6.59L61.17-6.59Q61.10-6.07 61.10-5.17L61.10-5.17Q61.10-3.57 61.48-2.96Q61.87-2.34 62.70-2.34ZM71.84-15L71.84-9.43Q72.89-10.76 74.53-10.76L74.53-10.76Q76.28-10.76 77.17-9.73Q78.06-8.69 78.08-6.67L78.08-6.67L78.08 0L74.78 0L74.78-6.59Q74.78-7.43 74.43-7.83Q74.09-8.22 73.27-8.22L73.27-8.22Q72.26-8.22 71.84-7.58L71.84-7.58L71.84 0L68.54 0L68.54-15L71.84-15ZM79.50-4.82L79.49-5.38Q79.49-6.96 80.11-8.20Q80.72-9.43 81.88-10.10Q83.03-10.76 84.58-10.76L84.58-10.76Q86.95-10.76 88.32-9.29Q89.69-7.82 89.69-5.29L89.69-5.29L89.69-5.18Q89.69-2.71 88.32-1.25Q86.94 0.20 84.60 0.20L84.60 0.20Q82.34 0.20 80.98-1.16Q79.61-2.51 79.50-4.82L79.50-4.82ZM82.79-5.77L82.78-5.18Q82.78-3.71 83.24-3.03Q83.70-2.34 84.60-2.34L84.60-2.34Q86.36-2.34 86.40-5.05L86.40-5.05L86.40-5.38Q86.40-8.22 84.58-8.22L84.58-8.22Q82.93-8.22 82.79-5.77L82.79-5.77ZM97.59-10.64L97.53-7.59L96.45-7.67Q94.89-7.67 94.45-6.69L94.45-6.69L94.45 0L91.16 0L91.16-10.57L94.25-10.57L94.36-9.21Q95.19-10.76 96.67-10.76L96.67-10.76Q97.20-10.76 97.59-10.64L97.59-10.64Z"></path></g></g></svg></svg><style>@media (prefers-color-scheme: light) { :root { filter: none; } }
@media (prefers-color-scheme: dark) { :root { filter: none; } }
</style></svg>